Coordinates
version=1
nRows=54
nColumns=12
inDegrees=yes

Units are S.I. units (second, meters, Newtons, ...)
Angles are in degrees

endheader
time	SC_y	SC_z	SC_x	AC_y	AC_z	AC_x	GH_y	GH_z	GH_yy	EL_x	PS_y
       0.0              -44.46           22.5           41.0          50.59          7.974          9.521         -150.3          22.09          163.0          61.01          109.5
   0.01631              -44.46           22.5           41.0          50.59          7.974          9.521         -150.3          22.09          163.0           61.0          109.4
   0.03261              -44.45           22.5          40.99          50.58          7.973           9.52         -150.3           22.1          163.0           61.0          109.4
   0.04892              -44.45           22.5          40.99          50.58          7.973          9.519         -150.3           22.1          163.0           61.0          109.4
   0.06522              -44.45          22.49          40.98          50.58          7.972          9.519         -150.3          22.11          162.9           61.0          109.4
   0.08153              -44.44          22.49          40.97          50.58          7.972          9.518         -150.3          22.12          162.9          60.99          109.4
   0.09783              -44.44          22.49          40.96          50.58          7.971          9.517         -150.3          22.12          162.9          60.99          109.4
    0.1141              -44.44          22.48          40.96          50.58           7.97          9.516         -150.3          22.13          162.9          60.98          109.4
    0.1304              -44.43          22.48          40.95          50.57           7.97          9.515         -150.3          22.14          162.8          60.98          109.4
    0.1467              -44.43          22.48          40.94          50.57          7.969          9.514         -150.3          22.15          162.8          60.97          109.4
    0.1631              -44.42          22.47          40.93          50.57          7.968          9.513         -150.3          22.15          162.8          60.97          109.4
    0.1794              -44.42          22.47          40.92          50.57          7.967          9.512         -150.3          22.16          162.7          60.96          109.3
    0.1957              -44.41          22.46          40.91          50.56          7.966           9.51         -150.3          22.17          162.7          60.96          109.3
     0.212              -44.41          22.46          40.89          50.56          7.965          9.509         -150.3          22.19          162.7          60.95          109.3
    0.2283               -44.4          22.45          40.88          50.56          7.964          9.507         -150.3           22.2          162.6          60.95          109.3
    0.2446              -44.39          22.45          40.86          50.55          7.963          9.506         -150.3          22.21          162.6          60.94          109.3
    0.2609              -44.39          22.44          40.85          50.55          7.961          9.504         -150.3          22.22          162.5          60.93          109.3
    0.2772              -44.38          22.43          40.83          50.55           7.96          9.502         -150.3          22.24          162.5          60.92          109.2
    0.2935              -44.37          22.43          40.81          50.54          7.958            9.5         -150.3          22.26          162.4          60.91          109.2
    0.3098              -44.36          22.42          40.79          50.54          7.956          9.497         -150.3          22.28          162.3           60.9          109.2
    0.3261              -44.35          22.41          40.77          50.53          7.954          9.495         -150.3           22.3          162.3          60.89          109.2
    0.3424              -44.33           22.4          40.74          50.53          7.952          9.492         -150.2          22.32          162.2          60.88          109.1
    0.3587              -44.32          22.39          40.71          50.52           7.95          9.489         -150.2          22.34          162.1          60.86          109.1
     0.375              -44.31          22.37          40.68          50.51          7.947          9.485         -150.2          22.37          162.0          60.85          109.1
    0.3913              -44.29          22.36          40.65           50.5          7.944          9.481         -150.2           22.4          161.9          60.83          109.0
    0.4076              -44.27          22.34          40.61          50.49          7.941          9.477         -150.2          22.43          161.8          60.81          109.0
    0.4239              -44.25          22.32          40.56          50.48          7.937          9.472         -150.2          22.47          161.6          60.79          108.9
    0.4402              -44.23           22.3          40.52          50.47          7.933          9.467         -150.2          22.51          161.5          60.77          108.9
    0.4566               -44.2          22.28          40.46          50.46          7.929          9.461         -150.2          22.56          161.3          60.74          108.8
    0.4729              -44.17          22.26           40.4          50.45          7.923          9.454         -150.2          22.62          161.1          60.71          108.7
    0.4892              -44.14          22.23          40.33          50.43          7.917          9.446         -150.2          22.68          160.9          60.68          108.6
    0.5055               -44.1          22.19          40.24          50.41          7.911          9.436         -150.2          22.75          160.6          60.64          108.5
    0.5218              -44.05          22.16          40.15          50.39          7.903          9.426         -150.2          22.83          160.3          60.59          108.4
    0.5381               -44.0          22.11          40.04          50.36          7.893          9.413         -150.2          22.93          159.9          60.53          108.3
    0.5544              -43.94          22.06          39.91          50.33          7.883          9.399         -150.1          23.04          159.5          60.47          108.1
    0.5707              -43.87           22.0          39.76           50.3           7.87          9.382         -150.1          23.18          159.0           60.4          107.9
     0.587              -43.78          21.92          39.58          50.25          7.855          9.362         -150.1          23.33          158.5          60.31          107.7
    0.6033              -43.68          21.84          39.36           50.2          7.837          9.338         -150.1          23.52          157.8           60.2          107.5
    0.6196              -43.56          21.73           39.1          50.14          7.815          9.308         -150.0          23.75          156.9          60.08          107.1
    0.6359              -43.41           21.6          38.78          50.07          7.788          9.272         -150.0          24.03          155.9          59.92          106.8
    0.6522              -43.22          21.44          38.39          49.98          7.755          9.228         -149.9          24.38          154.6          59.73          106.3
    0.6685              -42.99          21.24           37.9          49.86          7.713          9.173         -149.9          24.81          153.1          59.48          105.7
    0.6848              -42.69          20.98          37.28          49.72          7.661          9.104         -149.8          25.35          151.1          59.18          104.9
    0.7011              -42.32          20.66          36.49          49.53          7.595          9.016         -149.7          26.04          148.5           58.8          104.0
    0.7174              -41.84          20.25          35.48           49.3          7.511          8.903         -149.6          26.92          145.3           58.3          102.8
    0.7337              -41.23          19.73          34.19           49.0          7.402          8.758         -149.4          28.05          141.2          57.67          101.2
      0.75              -40.45          19.05          32.53          48.61          7.263          8.573         -149.2           29.5          135.9          56.86          99.19
    0.7664              -39.46          18.21          30.46          48.13          7.089           8.34         -148.9          31.32          129.2          55.84          96.68
    0.7827              -38.26          17.17          27.92          47.54          6.877          8.056         -148.6          33.53          121.1           54.6          93.61
     0.799              -36.87          15.98          24.99          46.85           6.63          7.727         -148.2           36.1          111.7          53.16          90.06
    0.8153              -35.36          14.68          21.81          46.11          6.363          7.371         -147.8          38.88          101.5          51.61          86.21
    0.8316              -33.86          13.39          18.63          45.37          6.097          7.015         -147.4          41.66           91.3          50.05          82.36
    0.8479              -32.47          12.19           15.7          44.69           5.85          6.687         -147.0          44.23          81.89          48.61           78.8
    0.8642              -31.27          11.16          13.17           44.1          5.638          6.403         -146.7          46.44          73.77          47.37          75.74
